<svg xmlns="http://www.w3.org/2000/svg" xmlns:xlink="http://www.w3.org/1999/xlink" style="width: 100%; height: 100%" viewBox="0 0 650 226" preserveAspectRatio="none" width="650" height="226"><defs><svg width="650" height="226" fill="none" xmlns="http://www.w3.org/2000/svg" id="svg-1880965444_361"><path fill-rule="evenodd" clip-rule="evenodd" d="M48 135h78V91H48V45h93V0H0v222h48v-87Zm111 4V0h49v136c0 27.949 14.7 43 42 43 27.6 0 43-15.652 43-43V0h49v139c0 52.894-36.2 87-92 87-55.5 0-91-33.806-91-87Zm250 38V0h-49v222h136v-45h-87Zm154 0V0h-49v222h136v-45h-87Z" fill="#000"></path></svg></defs><use href="#svg-1880965444_361"></use></svg>