<svg xmlns="http://www.w3.org/2000/svg" xmlns:xlink="http://www.w3.org/1999/xlink" style="width: 100%; height: 100%" viewBox="0 0 215 25" preserveAspectRatio="none" width="215" height="25"><defs><svg width="215" height="25" fill="none" xmlns="http://www.w3.org/2000/svg" id="svg1973504876_25785"><path d="M179.769 3.656c-6.181 0-8.508 4.994-8.508 8.856 0 4 2.391 8.858 8.301 8.858 5.233 0 8.529-4.09 8.529-9.264 0-5.174-3.193-8.45-8.322-8.45Zm.603 16.506c-3.757 0-6.008-3.692-6.008-8.346 0-5.57 2.563-7 4.814-7 3.211 0 5.734 3.108 5.734 8.12 0 6.464-3.17 7.226-4.54 7.226ZM115.38 21.41c1.376 0 2.821-.204 4.096-.928 1.836-1.064 2.358-2.625 2.319-3.937-.063-2.151-1.251-3.666-4.426-5.77l-.739-.474c-2.196-1.427-2.817-2.22-2.847-3.261-.04-1.357 1.097-2.33 3.017-2.33 1.684 0 2.456.679 2.858 1.11.562.586.713 1.288.72 1.49.008.273.09.409.272.409.206 0 .279-.18.264-.68-.053-1.763.031-2.42.023-2.716-.007-.156-.138-.225-.372-.271-.679-.157-1.774-.382-3.461-.382-3.604 0-5.935 1.785-5.861 4.275.054 1.833 1.088 3.417 3.999 5.363l1.217.815c2.195 1.447 2.617 2.513 2.649 3.62.036 1.2-1.063 2.579-3.397 2.579-1.607 0-3.155-.61-3.775-2.285-.143-.384-.259-.858-.27-1.154-.005-.181-.036-.384-.27-.384-.207 0-.277.25-.294.588-.015.362-.078 1.721-.04 2.964.014.497.095.612.515.77 1.129.43 2.3.589 3.803.589Z" fill="#000"></path><path d="M171.908 20.489c-.269 0-.596-.02-.905-.09-.434-.11-.846-.603-1.035-2.609-.315-3.388-.909-12.486-1.027-13.716-.04-.41-.454-.498-.708-.31-.191.138-.451.535-.715.895-4.006 5.464-6.215 8.416-10.288 13.923-.71.961-1.286 2.01-2.642 1.945-.578-.029-.801-.58-.867-1.204-.111-.96-.111-2.72-.111-4.77V5.637c0-.244.067-.379.177-.424.202-.068.535-.088.871-.088.511 0 1.817.067 2.617.799 1.248 1.117 1.235 2.63 1.235 3.365 0 2.275-1.806 3.726-3.054 3.726-.469 0-.867.066-.867.245 0 .154.157.179.268.2.112.02 1.061.056 1.174.056 3.164 0 5.428-1.901 5.483-5.393.016-1.18-.63-2.178-1.115-2.652-.638-.62-2.065-1.305-4.852-1.305-1.025 0-2.316.069-3.23.069-.543 0-3.638-.132-3.779-.132-.757 0-1.512.067-1.953.067-.42 0-1.379-.067-2.414-.067-.3 0-.519.023-.519.203 0 .131.079.197.32.197.277 0 .757 0 1.056.133.478.224.658.645.678 2.005l.057 8.66c-.338-.357-10.202-11.279-10.493-11.501-.376-.282-.762-.021-.762.331l-.37 11.203c-3.498-4.345-9.042-11.266-9.191-11.483a.45.45 0 0 0-.501-.175.455.455 0 0 0-.323.421c-.048.636-1.005 14.464-1.005 14.464-.035 1.101-.184 1.853-1.173 1.983a5.868 5.868 0 0 1-.684.044c-.181 0-.255.046-.205.176.068.178.219.222.515.222 1.174 0 2.391-.067 2.64-.067.702 0 1.698.067 2.421.067.248 0 .367-.044.301-.222-.049-.131-.133-.176-.405-.176h-.339c-.701 0-1.011-.286-1.161-.682-.102-.264-.188-.794-.169-1.345l.031-3.148c-.007-.135.023-.178.137-.178h4.804c.111 0 .196.043.283.156l3.564 4.376a.353.353 0 0 1 .081.255.353.353 0 0 1-.119.24.816.816 0 0 1-.234.137c-.279.09-.712.067-.973.067-.2 0-.207.128-.207.26 0 .203.184.245.443.245 1.039 0 1.977-.023 2.154-.023l2.141-.004c.685.013 1.338.042 1.737.043.879 0 1.022-.045.957-.223-.058-.155.01-.232-.173-.232-.27 0-.297.014-.662-.054-.517-.109-1.13-.744-2.738-2.728l-.337-.42-.132-8.082c.361.424 9.272 10.12 10.529 11.455.219.246.458.491.677.491.181 0 .26-.2.26-.692l.22-14.039c.02-1.245.166-1.753.736-1.89.214-.052.798-.062 1.231.03.734.154.914.511.959 1.269.044.714.044 1.337.044 4.724l.002 3.923c0 2.049 0 3.81-.114 4.747-.088.644-.2 1.137-.645 1.225-.2.044-.469.09-.803.09-.266 0-.356.066-.356.178 0 .155.158.221.445.221.892 0 2.938-.1 3.043-.094 2.043.107 3.836.078 4.823.044.815-.029 2.02.107 2.323.107.248 0 .451-.038.454-.226 0-.105-.066-.179-.276-.179h-.335c-.691 0-.608-.308-.366-.66l3.171-4.574c.087-.135.146-.18.258-.18l4.481-.022c.111 0 .163.045.171.157l.179 4.654c.024.268-.196.47-.369.514-.23.023-.379.044-.372.24.008.189.196.218.605.208.809-.018 1.431-.038 2.345-.025.809.012 1.638.078 2.074.078.823 0 1.111-.111 1.171-.29.048-.157-.095-.244-.273-.244Zm-42.979-6.356h-3.866c-.091 0-.139-.064-.15-.153l.163-4.473c.004-.08-.007-.188.061-.196.069-.008.081.065.149.146.173.218 3.706 4.545 3.706 4.545.048.068.05.131-.063.131Zm37.387-.01-3.631-.02c-.04 0-.122-.048-.046-.156.348-.503 2.506-3.61 3.436-4.942.061-.089.146-.059.149.028.029.666.249 4.955.249 4.955 0 .066-.045.135-.157.135Zm39.779-10.466c-6.179 0-8.507 4.993-8.507 8.856 0 1.872.525 3.93 1.686 5.593-.096.391-.315.856-.537 1.095-.557.602-1.956.622-3.136.622-1.74 0-1.859-.156-2.235-.488-.469-.4-.469-1.938-.469-4.792v-3.921c0-3.387 0-4.012.044-4.726.046-.778.223-1.158.824-1.27a6.2 6.2 0 0 1 .871-.067c.266 0 .401-.042.401-.2 0-.156-.157-.2-.469-.2-.868 0-2.993.066-3.528.066-.602 0-2.061-.066-3.107-.066-.335 0-.49.044-.49.2 0 .158.132.2.377.2.29 0 .558.023.737.066.735.156.914.514.959 1.271.044.714.044 1.339.044 4.726v3.92c0 2.054 0 3.812-.111 4.75-.09.643-.2 1.135-.646 1.225a3.66 3.66 0 0 1-.803.087c-.267 0-.357.07-.357.18 0 .154.157.223.447.223.89 0 2.349-.069 2.862-.069 1.806 0 3.843.134 7.049.134 1.16 0 1.273-.11 1.406-.602.112-.408.214-1.224.276-1.83 1.34 1.61 3.366 2.73 6.209 2.73 5.232 0 8.527-4.09 8.527-9.264-.001-5.174-3.193-8.45-8.324-8.45Zm.606 16.505c-3.759 0-6.008-3.691-6.008-8.345 0-5.57 2.563-7 4.814-7 3.209 0 5.734 3.107 5.734 8.12-.001 6.464-3.171 7.225-4.54 7.225Zm-134.649.63a4.212 4.212 0 0 1-.907-.09c-.432-.109-.845-.603-1.033-2.61-.315-3.388-.908-12.486-1.028-13.715-.039-.411-.454-.497-.709-.312-.188.14-.45.536-.714.896-3.085 4.211-5.109 6.933-7.735 10.478-.4-1.619-1.664-2.955-4.28-4.689l-.74-.475C52.71 8.85 52.09 8.057 52.058 7.017c-.042-1.358 1.097-2.332 3.016-2.332 1.684 0 2.456.68 2.859 1.11.561.588.712 1.289.718 1.493.009.271.09.407.272.407.207 0 .28-.181.264-.678-.052-1.767.031-2.423.023-2.716-.005-.159-.135-.226-.37-.271-.68-.159-1.776-.386-3.46-.386-3.605 0-5.937 1.789-5.862 4.276.055 1.833 1.087 3.417 3.997 5.365l1.218.815c2.196 1.447 2.616 2.51 2.65 3.62.036 1.2-1.063 2.58-3.397 2.58-1.608 0-3.156-.613-3.776-2.287-.143-.384-.26-.86-.268-1.155-.006-.18-.038-.383-.272-.383-.207 0-.253.25-.293.587-.038.299-.082.597-.132.895-.158.92-.427 1.393-1.012 1.663-.585.273-1.531.273-2.115.273-2.297 0-3.963-.339-4.008-1.89-.022-.655 0-2.724 0-3.49v-1.778c0-.136.023-.224.135-.224.54 0 3.745.021 4.172.066.832.09 1.148.428 1.26.878.067.293.067.586.09.81 0 .112.046.204.204.204.2 0 .2-.25.2-.429 0-.157.046-1.057.092-1.508.067-1.148.18-1.507.18-1.643 0-.135-.068-.18-.158-.18-.114 0-.202.112-.36.293-.201.225-.541.292-1.08.337-.519.045-4.082.045-4.577.045-.135 0-.158-.09-.158-.247V5.442c0-.158.045-.226.158-.226.45 0 3.79.045 4.172.091 1.125.135 1.35.405 1.508.81.111.27.134.653.134.811 0 .202.046.314.202.314.159 0 .204-.134.227-.248.043-.27.089-1.26.11-1.486.069-1.035.18-1.305.18-1.462 0-.113-.02-.204-.133-.204-.114 0-.248.069-.361.091-.18.046-.54.09-.968.134-.428.025-5.882.025-6.603.025-.315 0-.831-.025-1.418-.046-.462 0-.986-.014-1.495-.02-.022-.114-.067-.163-.162-.163-.175 0-.713.222-2.143.222h-7.574a22.95 22.95 0 0 1-2.23-.111c-.556-.043-.77-.184-.951-.184-.124 0-.199.045-.262.29h-.22c-.298 0-.595.01-.876.022-.485.018-.894.04-1.155.043-.453-.007-1.35-.065-2.316-.065-.298 0-.515.02-.515.2 0 .132.079.2.316.2.279 0 .756 0 1.053.132.425.2.614.556.661 1.606l.071 9.059c-.337-.358-10.155-11.282-10.445-11.502-.374-.284-.76-.022-.76.33l-.19 5.863-.273 7.743c-.021 1.934-.402 2.315-.918 2.626-.236.144-.654.211-.94.224-.089.004-1.011.045-1.405-.049-.597-.143-.954-.547-1.022-1.148-.09-.96-.09-2.72-.09-4.887v-3.925c0-3.392 0-4.016.047-4.731.043-.78.223-1.16.823-1.272.265-.045.442-.068.664-.068.223 0 .354-.042.354-.224 0-.13-.176-.177-.464-.177-.845 0-2.157.067-2.71.067-.644 0-2.042-.067-2.886-.067-.355 0-.535.047-.535.179 0 .181.135.223.358.223.263 0 .554.023.8.09.486.11.711.49.753 1.25.046.715.046 1.339.046 4.73v3.925c0 2.167 0 3.927-.11 4.864-.068.648-.202 1.026-.647 1.119-.262.057-.53.087-.797.087-.268 0-.358.067-.358.18 0 .155.157.223.445.223.89 0 2.288-.068 2.8-.068.597 0 3.942.065 4.048.065 1.15 0 2.315-.035 2.513-.035.42 0 1.306.068 2.743.068.31 0 .51-.046.51-.224 0-.132-.133-.176-.378-.176-.352 0-.773-.024-1.15-.156-.441-.156-.73-.733-.773-2.467l-.083-4.379-.07-4.356c.358.423 9.229 10.12 10.479 11.455.22.245.456.49.673.49.179 0 .26-.2.26-.69l.218-14.04a9.65 9.65 0 0 1 .017-.482c.067-.846.257-1.16.646-1.341.208-.093.5-.12.754-.129-.014.644 0 1.945 0 2.225 0 .248.046.357.201.357.133 0 .2-.09.245-.267.045-.181.156-.45.379-.786.333-.492.871-.605 2.166-.651l2.232-.09v9.19c0 2.064 0 3.834-.111 4.775-.067.651-.332 1.142-.778 1.235-.202.043-.918.089-1.253.089-.267 0-.356.066-.356.18 0 .155.156.224.448.224.889 0 2.875-.069 3.386-.069.626 0 2.033.069 3.503.069.246 0 .427-.069.427-.224 0-.114-.115-.18-.358-.18a9.92 9.92 0 0 1-1.139-.088c-.667-.093-.802-.584-.869-1.212-.113-.965-.113-2.735-.113-4.798v-9.19l2.196.069c1.986.046 2.663.672 2.706 1.255l.022.246c.025.338.069.448.248.448.134 0 .177-.134.2-.358 0-.542-.007-1.923-.007-2.489.17.01.325.029.421.052.742.159.924.518.969 1.282.044.721.044 1.352.044 4.773v3.96c0 2.073 0 3.85-.112 4.796-.09.652-.202 1.149-.654 1.237a3.67 3.67 0 0 1-.81.091c-.27 0-.36.067-.36.18 0 .156.157.224.45.224.45 0 1.036-.023 1.553-.044.54 0 1.036-.024 1.283-.024.676 0 1.374.024 2.341.068.967.024 3.512.069 5.2.069.855 0 1.057 0 1.214-.586a.785.785 0 0 0 .017-.072c.064.169.194.25.454.347 1.129.43 2.3.59 3.805.59.496 0 1.002-.03 1.506-.098.665.007 1.23 0 1.646-.014.815-.028 2.019 0 2.323 0 .246 0 .45.029.452-.16 0-.107-.064-.18-.276-.18h-.335c-.69 0-.607-.308-.366-.658l3.17-4.578c.088-.13.148-.176.26-.176l4.481-.023c.11 0 .162.045.172.157l.178 4.654c.024.268-.198.468-.367.512-.231.023-.382.044-.374.241.008.188.198.217.606.208.808-.018 1.43-.038 2.343-.025.809.011 1.64.079 2.075.079.825 0 1.111-.111 1.17-.29.05-.157-.091-.245-.27-.245Zm-5.594-6.368-3.632-.018c-.037 0-.12-.048-.045-.156.349-.506 2.505-3.61 3.438-4.943.061-.089.145-.06.15.029.027.666.247 4.954.247 4.954 0 .067-.045.134-.157.134Zm34.856-7.147-.008-.006c-.145-.087-.367-.137-.515-.071-.949-.09-1.853-.08-2.812-.071h-.028l-.038.001c-.48.007-.977.011-1.472.004l-4.017-.084a47.89 47.89 0 0 0-2.985.022 90.3 90.3 0 0 0-2.218.048c-.772.02-2.616.025-3.718.028-.585.002-.894.002-.932.005-.13.009-.288.189-.291.336-.003.08.045.174.185.188.104.012.77.014 1.98.01l1.236-.005c.33-.003.483.004.554-.005h.007c.909-.09 1.822-.085 2.705-.079h.068c.572.002 1.163.006 1.757-.017.123.028.253.002.378-.024l.02-.003c.056-.013.113-.021.17-.027.135.037.29.036.454.032.156-.002.317-.006.463.03l.002.004.025-.001v-.004c.128-.044.246-.021.37.004a.954.954 0 0 0 .19.027c1.148-.03 2.419.01 4.001.132l.75.08h.01c.665-.064 1.354-.014 2.02.033l.016.001c.5.038.973.072 1.443.062l.001.006.029-.01-.001-.006.25-.199.012-.01-.002-.004a.35.35 0 0 0-.059-.427Zm-6.645 8.534.02-.012v-.05l-.018-1.564v-.005l-.001-.003c-.028-.236-.032-.497-.04-.772-.006-.31-.012-.63-.054-.914-.008-.404-.088-.84-.166-1.26l-.057-.312-.02-.02a.481.481 0 0 1-.107-.233.773.773 0 0 0-.091-.23c-.104-.194-.27-.377-.417-.541l-.008-.009c-.036-.05-.08-.076-.116-.1a.55.55 0 0 1-.066-.048l-.034-.028-.02.005-.027-.021a1.133 1.133 0 0 0-.399-.193l-.002-.001c-.042-.06-.12-.069-.174-.07v-.039l-.075-.01-.398-.06-.032.042c-.013.015-.015.021-.088-.007-.034-.012-.07-.025-.112-.029l-.04-.004-.02.02a.497.497 0 0 0-.04-.025l-.145-.042-.01.067a.328.328 0 0 0-.167.035h-.23l-.212.003.024.082-.004.004c-.094-.026-.165.031-.205.065l-.02.016a.307.307 0 0 0-.148.067c-.022.018-.03.023-.05.025l-.037.003-.023.029a.69.69 0 0 1-.187.107l-.116.051.025.026a.196.196 0 0 0-.055.036h-.114v.09l-.012-.003-.064-.027a.336.336 0 0 0-.046.055c-.078.102-.162.2-.253.29-.11.12-.226.241-.313.374l-.028.038.018.04c-.021.013-.074.047-.084.111-.043.047-.053.11-.06.152a.157.157 0 0 1-.009.039c-.046.054-.055.111-.063.153-.007.033-.01.052-.023.07l-.056.07.025.02c-.017.042-.017.085-.017.112a.31.31 0 0 1-.002.037l-.037.021.01.056c.014.11 0 .214-.014.32a1.412 1.412 0 0 0-.016.329c-.043.065-.033.14-.025.19.002.016.005.04.004.05l-.056.045.04.065c.03.05.006.132-.015.209-.023.074-.049.163-.022.242a.081.081 0 0 0-.02.022.088.088 0 0 0-.015.064c0 .06-.007.08-.01.084l-.04.085-.006.033.074.052a.449.449 0 0 0 .004.139c.01.056.01.08-.006.104l-.047.084.047.055v.014c-.003.039-.007.107.041.157l.005.027-.084.023.054.118c0 .008-.003.02-.005.028-.01.035-.024.105.011.165a.288.288 0 0 0 .001.18c.003.013.008.031.009.042-.08.086-.041.197-.019.257-.037.056-.029.123-.02.166l-.109.037.11.113a.125.125 0 0 0 .013.085.097.097 0 0 0 .046.039l-.033.012.004.01.038.1v.012a.24.24 0 0 0 .032.162.093.093 0 0 0-.018.05l-.042.043.042.06c.033.046.02.11-.004.206-.02.083-.049.193.001.285l-.06.058.075.057-.004.012c-.02.035-.056.104-.012.176l-.003-.008c.015.035.009.093 0 .152-.01.088-.023.195.025.301l-.015.107.004-.014a.125.125 0 0 0 .01.1l-.035.017.025.074c.024.077.025.17.025.27.001.19.001.403.171.567l.038.033.048-.014c.128-.036.133-.164.136-.23l.004-.041.001-.018-.005-.017c-.051-.173-.029-.4-.01-.6l.014-.152v-.023l-.009-.024c-.035-.07-.027-.137-.016-.217a.553.553 0 0 0-.01-.236c.03-.367.013-.8-.003-1.182-.006-.16-.013-.314-.016-.456v-.009a3.876 3.876 0 0 1-.01-.562c.004-.168.01-.34-.005-.5.039-.183.037-.35.033-.527a4.902 4.902 0 0 1 0-.249v-.021l-.006-.012c.041-.046.05-.095.03-.143a.816.816 0 0 0 .023-.19.726.726 0 0 1 .012-.13l.005-.02-.007-.02c-.01-.04 0-.084.01-.132.014-.058.03-.124.005-.192.067-.137.084-.306.095-.469l.007-.057a.11.11 0 0 0-.037-.097v-.007c0-.071.039-.13.087-.203a.72.72 0 0 0 .124-.297v-.024c.006-.008.014-.014.02-.02.03-.025.078-.067.078-.132a.133.133 0 0 0-.005-.034.74.74 0 0 0 .131-.171c.05-.086.084-.145.182-.172l.047-.014.013-.048c.013-.053.06-.083.135-.131a.602.602 0 0 0 .164-.134c.063.005.101-.01.123-.036a.48.48 0 0 0 .182-.1c.08-.066.108-.08.162-.053l.053.023.036-.034.007-.002c.026-.007.07-.018.094-.06a.76.76 0 0 0 .065-.016c.043-.017.054-.018.07-.011.015.01.046.021.08.012l.004.007.064-.009.085-.01c.25-.033.467-.06.663.044l.07.037.042-.063.025.03c.05.056.139.153.266.131.029.026.06.044.088.06l.036.022v.005l.017.022c.04.053.124.08.192.082.147.154.295.366.295.458v.086h.067v.005c.025.114.057.257.147.352-.025.057-.005.127.006.157.002.01.007.021.009.032l-.023.065.058.057.013.008c-.005.059.023.115.042.154.005.01.011.021.015.034l-.014.03c-.077.15.028.233.077.272a.137.137 0 0 0 .018.015c-.038.03-.036.062-.045.114l.006.066.028.043.003.002.002.009c.005.012.01.03.022.05l-.03.03-.022.077.045.061.033.019c0 .03.008.06.023.087a.15.15 0 0 1 .004.013l-.007.038c-.028.143-.066.328.024.476-.003.004-.007.006-.007.009-.042.055-.032.117-.025.163.002.014.007.039.006.047l-.023.09c-.001.004.03.012.054.017-.002.008-.007.017-.01.026l-.017.104h.034c-.006.035-.007.069-.009.098 0 .053-.003.087-.02.112l-.009.012-.003.016c-.027.092.01.18.037.253.004.013.01.025.015.038a.106.106 0 0 0-.029.076c0 .007.004.014.006.02l-.019.019.017.05a.1.1 0 0 0 .048.06l-.013.003c-.004 0-.004.068-.004.068v.023l-.055.017.028.057a.132.132 0 0 0-.014.106l-.038.066c.003 0 .008.04.04.056-.033.119.052.206.104.257a.437.437 0 0 1 .045.051h-.043l.033.113v.003a.19.19 0 0 0-.021.024l-.073.034.024.097-.008.025a.12.12 0 0 0 .01.105l.012.01a.185.185 0 0 0-.062.12l-.008.082.067.011a.324.324 0 0 0-.014.05c-.01.03-.017.057-.03.077v.002a.062.062 0 0 0-.006.01l.117.066c-.018.03-.026.061-.034.084-.004.012-.008.028-.013.035h-.008l-.097.001.005.112c.005.02.009.04.01.06.003.022.005.045.01.07v.114c0 .014 0 .038.006.063l-.013.007.008.063a.335.335 0 0 1 0 .092l-.002.059-.08.04.098.108-.001.005a.243.243 0 0 0-.026.1h-.07l.118.144c.01.01.02.043.026.066l.003.009c-.05.046-.057.117-.06.154a.206.206 0 0 1-.009.047l.002-.003.03.041a.156.156 0 0 0-.046.052.174.174 0 0 0-.01.082h-.112l.092.094-.086.03.072.06v.231c0 .043.02.079.054.096l.005.002a.168.168 0 0 0 .14.02v.097l.113-.033a.398.398 0 0 1 .208-.015l.093.018.012-.093c.044-.348.035-.684.028-1.01a5.435 5.435 0 0 1 .023-.914c.028-.059.002-.111-.015-.139Zm-6.667 0 .02-.012v-.05l-.017-1.564v-.008c-.03-.236-.034-.497-.04-.772a7.508 7.508 0 0 0-.057-.914c-.007-.404-.087-.84-.165-1.26l-.052-.285-.004-.027-.02-.02a.494.494 0 0 1-.109-.233.77.77 0 0 0-.089-.23c-.104-.194-.27-.377-.418-.541l-.007-.009a.395.395 0 0 0-.118-.1.496.496 0 0 1-.065-.048l-.032-.028-.02.005-.028-.021a1.123 1.123 0 0 0-.398-.193l-.004-.001c-.041-.06-.119-.069-.172-.07v-.039l-.075-.01-.4-.06-.032.042c-.01.015-.015.021-.088-.007-.034-.012-.07-.025-.11-.029l-.042-.004-.019.02a.404.404 0 0 0-.04-.025l-.145-.042-.01.067a.33.33 0 0 0-.166.035h-.231l-.212.003.023.082-.004.004c-.092-.026-.164.031-.203.065l-.02.016a.301.301 0 0 0-.15.067c-.023.018-.03.023-.05.025l-.037.003-.023.029c-.032.037-.132.082-.185.107l-.118.051.026.026a.199.199 0 0 0-.056.036h-.114v.09l-.012-.003-.063-.027a.292.292 0 0 0-.046.055c-.078.102-.162.2-.253.29a2.94 2.94 0 0 0-.313.374l-.028.038.018.04c-.022.013-.075.047-.083.111a.27.27 0 0 0-.06.152.263.263 0 0 1-.008.039.297.297 0 0 0-.065.153c-.005.033-.009.052-.023.07l-.055.07.025.02a.312.312 0 0 0-.018.112l-.001.037-.037.021.008.056c.011.107.007.215-.013.32a1.38 1.38 0 0 0-.015.329c-.045.065-.034.14-.027.19.002.016.007.04.005.05l-.057.045.04.065c.03.05.007.132-.017.209-.02.074-.046.163-.02.242a.1.1 0 0 0-.02.022.104.104 0 0 0-.016.064.26.26 0 0 1-.008.084l-.041.085-.007.033.075.052a.443.443 0 0 0 .004.139c.01.056.01.08-.006.104l-.047.084.047.055v.014c-.003.039-.005.107.041.157.002.01.002.019.007.027l-.086.023.056.118-.005.028c-.009.035-.025.105.01.165-.027.07-.01.135 0 .18.002.013.008.031.01.042-.081.086-.04.197-.02.257-.038.056-.028.123-.02.166l-.109.037.11.113a.121.121 0 0 0 .014.085.097.097 0 0 0 .046.039l-.034.012.005.01h-.001l.04.1-.002.012a.236.236 0 0 0 .033.162.099.099 0 0 0-.018.05l-.042.043.042.06c.033.046.02.11-.004.206-.021.083-.048.193.001.285l-.06.058.076.057-.005.012c-.02.035-.055.104-.01.176l-.005-.008c.016.035.008.093 0 .152-.009.088-.022.195.025.301l-.015.107.004-.014c-.005.017-.007.034-.005.051a.125.125 0 0 0 .016.05l-.035.016.023.074c.024.077.025.17.027.27 0 .19 0 .403.17.567l.036.033.05-.014c.127-.036.132-.164.136-.23 0-.017.002-.03.003-.041l.003-.018-.005-.017c-.052-.173-.031-.4-.01-.6.003-.054.009-.104.012-.152l.002-.023-.01-.024c-.035-.07-.027-.137-.017-.217a.542.542 0 0 0-.009-.236c.03-.367.013-.8-.002-1.182-.007-.16-.012-.314-.015-.456v-.009a3.766 3.766 0 0 1-.01-.562 3.89 3.89 0 0 0-.007-.5c.04-.183.037-.35.035-.527a4.679 4.679 0 0 1 0-.249v-.021l-.005-.012c.04-.046.048-.095.028-.143a.746.746 0 0 0 .022-.19c.003-.046.004-.09.014-.13l.004-.02-.005-.02c-.012-.04-.001-.084.01-.132.012-.058.027-.124.003-.192.068-.137.083-.306.097-.469l.005-.057a.113.113 0 0 0-.035-.097v-.007c0-.071.038-.13.084-.203a.693.693 0 0 0 .125-.297l.002-.02v-.004a.118.118 0 0 1 .019-.02c.032-.025.079-.067.077-.132a.137.137 0 0 0-.005-.034c.061-.055.097-.116.132-.171.048-.086.083-.145.182-.172l.046-.014.013-.048c.015-.053.062-.083.136-.131a.602.602 0 0 0 .164-.134c.062.005.1-.01.123-.036a.475.475 0 0 0 .182-.1c.08-.066.107-.08.161-.053l.054.023.035-.034.006-.002c.026-.007.07-.018.096-.06a.607.607 0 0 0 .063-.016c.044-.017.056-.018.071-.011.017.01.045.021.082.012l.002.007.064-.009.085-.01c.25-.033.467-.06.662.044l.07.037.043-.063.026.03c.05.056.138.153.265.131a.447.447 0 0 0 .086.06l.039.022v.005l.015.022c.041.053.125.08.192.082.148.154.296.366.296.458v.086h.065v.005c.025.114.059.257.147.352-.025.057-.003.127.007.157l.008.032-.02.065.057.057.013.008a.308.308 0 0 0 .042.154l.016.034-.014.03c-.079.15.027.233.077.272a.048.048 0 0 0 .02.015c-.04.03-.04.062-.047.114l.007.066.026.043.002.002c.001.002.001.007.003.009.005.012.01.03.021.05l-.03.03-.02.077.042.061.035.019c-.002.034.014.066.023.087 0 .004.002.01.005.013l-.009.038c-.029.143-.064.328.024.476l-.007.009c-.04.055-.03.117-.023.163 0 .014.006.039.004.047l-.023.09c-.002.004.03.012.053.017-.002.008-.006.017-.007.026l-.02.104h.034c-.005.035-.005.069-.007.098 0 .053-.002.087-.021.112l-.007.012-.004.016c-.026.092.009.18.037.253l.015.038a.105.105 0 0 0-.028.076c0 .007.003.014.005.02l-.02.019.018.05a.093.093 0 0 0 .048.06l-.014.003c-.004 0-.004.068-.004.068v.023l-.053.017.026.057c-.012.025-.028.063-.012.106l-.038.066s.007.04.04.056c-.035.119.05.206.103.257.02.022.035.038.044.051h-.043l.033.113.001.003a.202.202 0 0 0-.023.024l-.072.034.024.097-.007.025a.113.113 0 0 0 .01.105l.01.01a.186.186 0 0 0-.06.12l-.008.082.066.011a.435.435 0 0 0-.015.05c-.01.03-.016.057-.03.077v.002a.035.035 0 0 0-.006.01l.117.066a.368.368 0 0 0-.032.084.264.264 0 0 1-.013.035h-.009l-.098.001.005.112c.007.017.009.037.012.06a.33.33 0 0 0 .01.07v.114c0 .014 0 .038.005.063l-.014.007.01.063a.45.45 0 0 1 0 .092c0 .018-.004.04-.002.059l-.08.04.098.108a.254.254 0 0 0-.027.105h-.07l.118.144c.01.01.02.043.025.066a.016.016 0 0 1 .002.009c-.047.046-.055.117-.059.154-.003.016-.004.04-.01.047l.004-.003.03.041a.13.13 0 0 0-.045.052.14.14 0 0 0-.01.082h-.115l.095.094-.088.03.073.06v.231c0 .043.02.079.055.096l.004.002a.17.17 0 0 0 .14.02v.097l.112-.033a.403.403 0 0 1 .21-.015l.092.018.012-.093c.045-.348.035-.684.027-1.01a5.443 5.443 0 0 1 .025-.914.143.143 0 0 0-.018-.139Zm13.216.117.022-.012-.002-.05-.017-1.564v-.008c-.029-.236-.034-.495-.04-.77-.008-.311-.014-.63-.055-.913-.008-.406-.089-.84-.166-1.26l-.053-.287-.005-.026-.019-.021a.48.48 0 0 1-.108-.232c-.021-.078-.041-.156-.089-.231-.105-.193-.272-.377-.419-.542l-.008-.008a.368.368 0 0 0-.116-.1c-.021-.014-.044-.029-.064-.047l-.034-.029-.021.005-.027-.022c-.132-.106-.255-.146-.398-.194h-.004c-.041-.06-.12-.069-.173-.072v-.037L99 9.446l-.052-.009-.03.043c-.013.016-.016.02-.091-.007-.032-.01-.07-.025-.11-.029l-.04-.003-.02.019a.174.174 0 0 0-.04-.024l-.145-.044-.01.066a.358.358 0 0 0-.166.038h-.443l.025.083-.005.004c-.093-.025-.166.032-.205.066l-.019.016a.316.316 0 0 0-.15.068c-.023.017-.03.022-.05.024l-.036.003-.025.029c-.03.04-.13.081-.185.107l-.117.052.026.024a.248.248 0 0 0-.056.037h-.112v.09c-.005 0-.01 0-.013-.002l-.064-.027c-.005-.002-.046.054-.046.054-.078.102-.162.2-.253.292-.115.115-.22.24-.313.372l-.028.04.017.039c-.02.012-.074.046-.084.11a.274.274 0 0 0-.058.152l-.009.038a.322.322 0 0 0-.065.155c-.005.032-.009.051-.023.069l-.055.071.025.018c-.017.042-.017.087-.017.113a.26.26 0 0 1-.003.036l-.036.022.01.057c.014.11 0 .211-.014.32a1.44 1.44 0 0 0-.017.328c-.043.065-.03.142-.025.19.002.017.006.039.005.049l-.056.044.04.067c.03.05.006.131-.017.209-.021.073-.048.166-.021.243a.1.1 0 0 0-.019.021.101.101 0 0 0-.015.066c0 .058-.008.076-.01.082l-.04.084-.008.034.075.053a.383.383 0 0 0 .005.137c.008.058.01.082-.006.104l-.047.086.046.054v.014c-.003.037-.007.107.042.157l.004.027-.084.023.055.118-.005.03a.216.216 0 0 0 .01.164.28.28 0 0 0 .002.181.283.283 0 0 1 .008.04c-.08.085-.041.196-.018.255-.039.057-.03.127-.022.166l-.108.037.11.115a.121.121 0 0 0 .013.085.13.13 0 0 0 .047.04l-.034.01c.001.005.002.007.005.01h-.001l.038.103v.01a.236.236 0 0 0 .033.162.094.094 0 0 0-.018.05l-.043.043.042.06c.034.049.02.11-.004.207-.021.084-.047.192.002.286l-.06.06.076.054-.006.01c-.02.038-.056.105-.012.178l-.003-.009c.016.035.008.092.001.153a.545.545 0 0 0 .025.3l-.015.106.002-.011a.136.136 0 0 0 .011.1l-.033.017.022.071c.026.079.026.174.026.273.002.188.002.402.172.564l.037.036.049-.014c.127-.038.133-.164.137-.233a.26.26 0 0 1 .003-.04v-.018l-.003-.017c-.051-.174-.03-.4-.011-.6l.014-.152v-.024l-.01-.021c-.034-.07-.026-.139-.015-.219a.543.543 0 0 0-.01-.235c.03-.366.013-.798-.002-1.182a19.055 19.055 0 0 1-.014-.454l-.002-.006v-.006c-.021-.179-.015-.373-.01-.56a4.18 4.18 0 0 0-.005-.502c.04-.181.038-.35.034-.526-.002-.08-.005-.165 0-.25v-.02l-.005-.012c.039-.047.048-.096.027-.145.019-.068.021-.132.024-.189a.79.79 0 0 1 .011-.128l.006-.022-.006-.021c-.011-.039 0-.083.01-.129.013-.06.028-.126.004-.193.069-.138.083-.306.096-.47l.006-.054a.117.117 0 0 0-.035-.1v-.005c0-.073.036-.131.084-.205.051-.08.11-.171.125-.298l.002-.02v-.003a.102.102 0 0 1 .018-.018c.031-.027.08-.068.078-.132a.092.092 0 0 0-.006-.035.719.719 0 0 0 .132-.172c.05-.083.084-.143.182-.17l.048-.014.012-.047c.014-.054.06-.085.136-.131a.603.603 0 0 0 .163-.136c.063.007.102-.011.123-.035a.471.471 0 0 0 .183-.101c.08-.065.107-.079.16-.053l.055.025.034-.035h.009a.151.151 0 0 0 .093-.062.635.635 0 0 0 .064-.017c.044-.016.054-.018.07-.009a.114.114 0 0 0 .082.01l.003.006.064-.008.084-.01c.252-.032.467-.06.664.044l.069.04.043-.064c.008.01.017.021.026.028.05.057.138.153.265.132a.65.65 0 0 0 .123.083v.002l.018.024c.04.053.124.079.19.082.148.153.298.364.298.458v.086h.065l.001.006c.024.115.056.256.146.349-.025.058-.004.13.006.159a.162.162 0 0 1 .009.032l-.021.064.058.059.011.007a.324.324 0 0 0 .044.154c.003.01.01.022.013.033l-.012.032c-.078.149.027.232.077.27.007.008.013.012.019.017-.039.031-.039.06-.046.114l.007.065.025.043.003.001a.015.015 0 0 1 .003.009c.005.014.01.03.022.05l-.03.03-.021.077.044.064.032.016c-.001.035.015.066.023.088a.028.028 0 0 1 .005.012l-.007.04c-.029.143-.066.328.024.477a.019.019 0 0 0-.005.003c-.043.057-.033.12-.025.166 0 .014.006.04.003.048l-.021.088c-.001.005.028.012.053.018-.003.008-.007.016-.01.027l-.018.103h.035c-.007.035-.007.069-.008.097-.002.053-.003.088-.022.115l-.007.013-.004.012c-.025.095.009.182.036.254a.274.274 0 0 1 .015.04.09.09 0 0 0-.021.033.088.088 0 0 0-.006.039c0 .008.003.015.006.023l-.019.018.016.052a.087.087 0 0 0 .049.057l-.015.002c-.003.002-.003.07-.003.07v.024l-.054.015.027.057c-.013.028-.028.064-.013.107l-.038.066s.006.04.041.057c-.036.118.051.205.1.256.023.024.038.038.048.052h-.044l.033.11.001.004-.023.025-.072.035.023.095-.008.025c-.006.018-.008.036-.006.054a.117.117 0 0 0 .017.051c.004.005.009.006.011.01a.191.191 0 0 0-.06.12l-.008.083.066.01a.448.448 0 0 0-.015.05c-.009.034-.015.059-.03.08h.001l-.006.01.117.065a.332.332 0 0 0-.033.086l-.014.033h-.008l-.098.002.006.114c.005.02.008.04.01.06.002.02.005.044.01.069v.113c0 .014.002.037.006.062l-.012.008.008.064a.36.36 0 0 1 0 .093c-.002.017-.002.037-.002.058l-.08.04.097.107-.002.007a.28.28 0 0 0-.024.098h-.071l.118.143c.01.011.019.045.026.067l.002.01c-.048.047-.055.114-.059.153l-.007.047v-.003l.03.04a.162.162 0 0 0-.045.053.134.134 0 0 0-.01.082h-.114l.095.094-.089.028.073.061v.234a.11.11 0 0 0 .054.095l.007.001a.175.175 0 0 0 .139.02v.096l.111-.033a.403.403 0 0 1 .209-.017l.092.02.013-.094c.044-.345.035-.685.027-1.009a5.51 5.51 0 0 1 .023-.913c.029-.057.002-.11-.016-.14Z" fill="#000"></path><path d="M103.85.5H79.851v24h24l-.001-24Zm-1.269 22.735H81.116V1.768h21.465v21.466Z" fill="#000"></path></svg></defs><use href="#svg1973504876_25785"></use></svg>