<svg xmlns="http://www.w3.org/2000/svg" xmlns:xlink="http://www.w3.org/1999/xlink" style="width: 100%; height: 100%" viewBox="0 0 74 25" preserveAspectRatio="none" width="74" height="25"><defs><svg width="74" height="25" fill="none" xmlns="http://www.w3.org/2000/svg" id="svg1585313923_990"><path d="M38.578 1.17C35.6.427 32.741 5.102 31.182 11.36c-1.56 6.257-1.228 11.727 1.75 12.47 2.98.744 5.838-3.93 7.397-10.188 1.56-6.257 1.228-11.727-1.75-12.47Zm9.359 11.33C47.589 19.404 42.209 25 35.125 25c-7.083 0-11.899-5.596-11.55-12.5C23.921 5.596 29.301 0 36.384 0c7.084 0 11.9 5.596 11.552 12.5ZM64.404 1.17c-2.979-.743-5.838 3.932-7.396 10.189-1.56 6.257-1.229 11.727 1.75 12.47 2.979.744 5.838-3.93 7.396-10.188 1.56-6.257 1.228-11.727-1.75-12.47Zm9.358 11.33C73.414 19.404 68.034 25 60.951 25c-7.084 0-11.9-5.596-11.551-12.5C49.748 5.596 55.128 0 62.21 0c7.084 0 11.9 5.596 11.551 12.5Zm-51.401 3.88c-.194 5.544-5.392 8.55-10.743 8.55-4.534 0-8.768-2.426-10.755-3.901L3.1 14.813l.133.047c3.676 5.5 6.8 9.287 10.066 8.992 2.16-.195 3.443-1.512 3.534-4.123.127-3.633-2.644-8.135-13.068-6.277l-.156-.057L8.301.347h15.727l-2.111 5.871H7.182l-1.39 3.864c8.327-4.28 16.78.235 16.569 6.297Z" fill="#000"></path></svg></defs><use href="#svg1585313923_990"></use></svg>