<svg xmlns="http://www.w3.org/2000/svg" xmlns:xlink="http://www.w3.org/1999/xlink" style="width: 100%; height: 100%" viewBox="0 0 135 17" preserveAspectRatio="none" width="135" height="17"><defs><svg width="135" height="17" fill="none" xmlns="http://www.w3.org/2000/svg" id="svg-1964981400_1853"><path fill-rule="evenodd" clip-rule="evenodd" d="M56.33 11.06h8.503l-4.496-7.35L52.084 17H48.33L58.367 1.035A2.36 2.36 0 0 1 60.336 0c.781 0 1.509.376 1.931 1.008L72.344 17h-3.755l-1.772-2.97h-8.61l-1.878-2.97Zm39.01 2.97V.16h-3.188v15.225A1.618 1.618 0 0 0 93.779 17h14.533l1.878-2.97H95.34Zm-52.723-2.486c3.094 0 5.607-2.54 5.607-5.685 0-3.144-2.513-5.699-5.607-5.699H28.676V17h3.185V3.131h10.545c1.481 0 2.67 1.223 2.67 2.729 0 1.504-1.19 2.726-2.67 2.726l-8.985-.011L42.935 17h4.628l-6.4-5.456h1.455ZM9.065 17C4.491 17 .78 13.237.78 8.587S4.491.162 9.065.162h9.63c4.576 0 8.285 3.776 8.285 8.425 0 4.65-3.71 8.413-8.285 8.413h-9.63Zm9.416-2.97c2.963 0 5.364-2.433 5.364-5.443s-2.4-5.456-5.364-5.456H9.278c-2.963 0-5.363 2.446-5.363 5.456 0 3.01 2.4 5.443 5.362 5.443h9.204ZM78.994 17c-4.574 0-8.29-3.763-8.29-8.413S74.42.162 78.995.162h11.439l-1.865 2.97h-9.362c-2.963 0-5.37 2.445-5.37 5.455 0 3.01 2.408 5.443 5.37 5.443h11.49L88.82 17h-9.826Zm38.97-2.97c-2.446 0-4.522-1.666-5.157-3.965h13.62l1.878-2.97h-15.498c.634-2.284 2.711-3.964 5.158-3.964h9.348l1.892-2.97h-11.452c-4.575 0-8.291 3.777-8.291 8.425 0 4.652 3.716 8.414 8.292 8.414h9.825l1.877-2.97h-11.492Zm14.401-10.173c1.031 0 1.864-.847 1.864-1.895 0-1.047-.834-1.894-1.864-1.894-1.018 0-1.852.846-1.852 1.894s.834 1.895 1.853 1.895h-.001Zm-1.455-1.908c0-.82.648-1.478 1.455-1.478.819 0 1.468.658 1.468 1.478 0 .833-.649 1.491-1.468 1.491-.807 0-1.455-.66-1.455-1.492Zm1.283-1.115c.291 0 .409.013.542.066.371.121.411.457.411.592 0 .027 0 .094-.027.175a.547.547 0 0 1-.251.363c-.027.013-.04.027-.093.054l.476.873h-.463l-.423-.806h-.291v.806h-.41V.833h.529Zm.145.967c.132-.014.264-.014.344-.134a.284.284 0 0 0 .053-.188.303.303 0 0 0-.158-.256c-.093-.04-.185-.04-.384-.04h-.118V1.8h.264-.001Z" fill="#000"></path></svg></defs><use href="#svg-1964981400_1853"></use></svg>