<svg xmlns="http://www.w3.org/2000/svg" xmlns:xlink="http://www.w3.org/1999/xlink" style="width: 100%; height: 100%" viewBox="0 0 129 20" preserveAspectRatio="none" width="129" height="20"><defs><svg width="129" height="20" fill="none" xmlns="http://www.w3.org/2000/svg" id="svg-1665053004_2579"><path fill-rule="evenodd" clip-rule="evenodd" d="M108.678 15.074s-.821.779-2.522 1.221c-1.294.333-3.685.261-3.685-3.697 0-5.602 6.208-4.563 6.208-4.563v7.039h-.001ZM90.029 7.646c1.583 0 2.006.828 1.916 1.885-.094 1.118-1.395 2.424-5.399 2.424 0 0-.098-4.31 3.485-4.31h-.002Zm38.538 7.12c-1.184.653-3.166 1.647-4.369 1.647-2.029 0-2.674-.56-2.674-2.65V8.77h5.817V5.176h-5.817V0h-3.867v5.177h-2.734v3.595h2.734v6.169l-.013-.064s-1.727 1.551-3.365 1.551c-1.912 0-1.808-1.787-1.808-1.787V5.384s-1.325-.599-4.855-.599c-5.47 0-9.092 3.408-9.092 8.582 0 .317.016.626.055.921-1.187.737-3.647 2.03-6.675 2.269-3.856.313-4.847-1.19-5.142-2.186 0 0 9.31.336 9.31-5.442 0-1.612-1.385-4.171-5.604-4.171-4.216 0-7.833 2.268-7.833 8.265 0 5.335 4.21 6.977 8 6.977 4.518 0 7.872-2.32 8.742-2.977 1.056 1.985 2.935 2.934 4.436 2.934 3.006 0 5.289-2.005 5.289-2.005S109.998 20 112.471 20c2.824 0 5.361-1.763 5.941-2.2.826 1.181 2.323 2.141 4.528 2.141 2.343 0 4.457-1.119 5.638-1.761l-.01-3.412-.001-.001ZM76.18 4.786c-2.056 0-3.977.864-4.694 1.232V0h-3.868s.018 5.62.023 10.218l-.023.033V15.2c-.394.337-1.542 1.227-2.866 1.227-1.91 0-1.802-1.787-1.802-1.787V5.383s-1.323-.598-4.863-.598c-5.468 0-9.088 3.407-9.088 8.582 0 .937.137 1.767.365 2.495-.776.317-1.545.55-2.133.55-2.026 0-2.669-.56-2.669-2.65V.002H40.69v15.573c-.97.455-2.032.839-2.782.839-2.031 0-2.673-.56-2.673-2.65V.001h-3.872v14.18c-1.099.71-3.653 2.122-6.83 2.376-3.853.313-4.84-1.189-5.142-2.184 0 0 9.306.335 9.306-5.443 0-1.612-1.377-4.172-5.6-4.172-4.213 0-7.835 2.268-7.835 8.265 0 5.334 4.217 6.976 8.002 6.976 4.175 0 7.354-1.98 8.509-2.8.69 1.428 2.303 2.74 4.875 2.74 2.185 0 4.173-.818 5.385-1.452.876.844 2.185 1.453 3.943 1.453 2.028 0 3.89-.71 5.116-1.316.985.895 2.173 1.332 3.2 1.332 3.003 0 5.286-2.005 5.286-2.005s.899 2.048 3.371 2.048c2.06 0 3.725-.839 4.669-1.438v.013s2.13 1.382 5.695 1.382c5.465 0 8.282-4 8.282-8.5 0-4.51-2.854-6.67-5.415-6.67Zm-4.694 11.517V9.247s1.535-.987 3.397-.987c1.296 0 2.83.691 2.83 3.936 0 5.929-6.227 4.107-6.227 4.107Zm-12.404-1.228s-.818.777-2.52 1.22c-1.293.333-3.688.261-3.688-3.697 0-5.602 6.209-4.563 6.209-4.563v7.039Zm-36.49-7.43c1.58 0 2 .83 1.918 1.886-.1 1.118-1.389 2.424-5.4 2.424 0 0-.104-4.31 3.482-4.31ZM8.569 4.786c-2.062 0-3.98.752-4.703 1.075V0H0l.026 10.22-.026.032v9.032s2.258.673 5.745.673c5.464 0 8.236-4.173 8.236-8.677 0-4.51-2.856-6.494-5.412-6.494ZM3.865 16.481v-7.41s1.543-.811 3.402-.811c1.302 0 2.882.65 2.882 3.903 0 5.632-6.283 4.32-6.283 4.32v-.002Z" fill="#000"></path></svg></defs><use href="#svg-1665053004_2579"></use></svg>