<svg xmlns="http://www.w3.org/2000/svg" xmlns:xlink="http://www.w3.org/1999/xlink" style="width: 100%; height: 100%" viewBox="0 0 127 25" preserveAspectRatio="none" width="127" height="25"><defs><svg width="127" height="25" fill="none" xmlns="http://www.w3.org/2000/svg" id="svg-2085781490_2120"><path fill-rule="evenodd" clip-rule="evenodd" d="M.229 7.678h10.255v2.773H3.85v2.397h6.362v2.88H3.85v2.478h6.742V21H.229V7.678Zm26.192 0h3.653v13.354h-3.648l-.005-13.354Zm16.966.403-.244 2.854c-2.95-1.697-7.468-1.158-7.55 3.284-.08 4.444 4.655 5.09 7.658 3.583l.19 2.906c-5.305 1.644-11.636-.026-11.61-6.49.029-6.325 6.414-8.076 11.554-6.137h.002Zm10.742-.188-.244 2.744c-1.84-.996-5.33-1.023-5.33.538 0 2.316 6.223.648 6.223 5.601 0 4.874-5.926 4.928-9.768 3.797l.27-2.907c2.409 1.102 5.818 1.344 5.818-.566 0-2.099-6.25-.915-6.25-5.627 0-3.863 4.87-4.9 9.282-3.58h-.001Zm11.012 0-.244 2.744c-1.84-.996-5.33-1.023-5.33.538 0 2.316 6.223.648 6.223 5.601 0 4.874-5.926 4.928-9.768 3.797l.272-2.907c2.407 1.102 5.816 1.344 5.816-.566 0-2.099-6.251-.915-6.251-5.627 0-3.863 4.87-4.9 9.28-3.58h.002Zm16.803-.216h4.626l4.41 8.616V7.677h3.356v13.355h-4.357l-4.653-8.777v8.777h-3.383V7.678Zm25.921 8.213c-.425-1.275.199-2.647 1.461-3.123l14.125-5.171c1.281-.483 2.72.131 3.219 1.4a2.501 2.501 0 0 1-1.488 3.258l-14.151 5.196c-1.311.425-2.732-.26-3.166-1.56Zm-.002-7.432c-.424-1.276.2-2.645 1.463-3.123l14.123-5.17c1.281-.485 2.721.13 3.22 1.4a2.503 2.503 0 0 1-1.489 3.258l-14.151 5.197c-1.311.423-2.732-.26-3.166-1.563v.001Zm-.001 14.857c-.422-1.277.2-2.647 1.462-3.124l14.124-5.17c1.281-.483 2.717.132 3.22 1.4a2.499 2.499 0 0 1-1.488 3.257l-14.151 5.197c-1.313.422-2.735-.258-3.166-1.56h-.001ZM73.529 7.245c3.792.002 6.683 2.207 6.683 7.028 0 4.604-2.906 6.972-6.683 6.974-3.77.002-6.656-2.316-6.656-6.974 0-4.818 2.872-7.03 6.656-7.028Zm-2.922 7.028c.001 2.037.876 4.338 2.923 4.335 2.046-.002 2.906-2.298 2.922-4.335.015-1.84-.877-4.332-2.922-4.335-2.047-.002-2.924 2.3-2.922 4.335h-.001ZM13.14 7.678h6.57c1.785 0 4.276.781 4.276 3.554 0 1.778-.813 2.775-2.355 3.23.028-.025.873.311 1.218 1.348.011.033 1.881 5.21 1.9 5.222h-3.877l-1.378-4.011c-.213-.617-.673-1.025-1.327-1.025-.568 0-1.46-.038-1.46 0v5.036h-3.571l.003-13.354h.001Zm3.486 5.627h2.002c.9.014 1.711-.524 1.704-1.508-.006-.874-.723-1.494-1.65-1.48h-2.056v2.987Z" fill="#000"></path></svg></defs><use href="#svg-2085781490_2120"></use></svg>