<svg xmlns="http://www.w3.org/2000/svg" xmlns:xlink="http://www.w3.org/1999/xlink" style="width: 100%; height: 100%" viewBox="0 0 105 22" preserveAspectRatio="none" width="105" height="22"><defs><svg width="105" height="22" fill="none" xmlns="http://www.w3.org/2000/svg" id="svg-2060823094_4119"><path d="M77.718 3.574c.496 0 .905-.176 1.255-.527.321-.352.496-.762.496-1.231 0-.469-.175-.879-.525-1.23a1.57 1.57 0 0 0-1.197-.528c-.496 0-.905.176-1.255.498-.35.322-.525.762-.525 1.26 0 .469.175.879.525 1.23.321.352.73.527 1.226.527Zm-25.51 2.812c-1.986 0-3.591.79-4.846 2.343-1.08 1.377-1.605 3.193-1.605 5.45 0 2.255.525 4.071 1.605 5.448 1.226 1.582 2.802 2.344 4.728 2.344 2.044 0 3.678-.791 4.904-2.344 1.08-1.377 1.605-3.222 1.605-5.478 0-2.227-.525-4.043-1.605-5.42-1.197-1.552-2.802-2.343-4.787-2.343Zm0 14.56c-1.14 0-1.956-.528-2.482-1.582-.584-1.201-.876-2.989-.876-5.333 0-2.84.468-4.745 1.402-5.712.583-.586 1.226-.879 1.955-.879.467 0 .905.117 1.285.352.583.351 1.021.879 1.313 1.552.496 1.084.73 2.696.73 4.776 0 4.57-1.11 6.825-3.328 6.825ZM67.735 6.531a4.327 4.327 0 0 0-2.744.938c-.438.351-.76.82-1.051 1.435V0l-4.554.205V1.2h.234c.613 0 1.022.117 1.226.38.263.294.38.997.38 2.169v14.618c0 1.318-.06 2.168-.147 2.607 0 .059-.058.234-.174.557h1.05a22.3 22.3 0 0 1 .671-1.026c.234-.322.438-.497.614-.497.145 0 .35.087.554.263.525.44.905.732 1.05.82a4.805 4.805 0 0 0 2.598.762c1.752 0 3.153-.732 4.204-2.168 1.138-1.552 1.722-3.486 1.722-5.771 0-2.402-.642-4.336-1.927-5.771-.904-1.084-2.189-1.611-3.706-1.611ZM67.18 20.74a2.62 2.62 0 0 1-1.489-.439 3.474 3.474 0 0 1-1.226-1.436c-.525-1.142-.788-2.753-.788-4.833 0-2.696.555-4.541 1.693-5.595.613-.528 1.255-.82 1.956-.82.992 0 1.722.526 2.218 1.552.526 1.113.788 2.724.788 4.775 0 4.54-1.05 6.796-3.152 6.796Zm32.633-1.318c-.73.879-1.664 1.318-2.744 1.318-1.401 0-2.393-.703-2.977-2.08-.41-.996-.642-2.519-.642-4.57h8.698c-.059-1.757-.38-3.222-.992-4.394-1.11-2.197-2.744-3.31-4.933-3.31-1.46 0-2.744.586-3.766 1.757-1.313 1.495-1.985 3.457-1.985 5.947 0 2.696.672 4.746 1.985 6.181C93.538 21.414 94.881 22 96.574 22c2.276 0 4.086-1.348 5.4-4.043l-.964-.498c-.379.82-.788 1.494-1.196 1.963Zm-6.013-9.17c.496-1.816 1.372-2.753 2.598-2.753 1.08 0 1.897.732 2.393 2.226.292.85.409 1.905.409 3.223h-5.75c.029-1.055.146-1.963.35-2.696Zm-6.042 9.902c-.263-.293-.38-1.025-.38-2.197V0l-4.67.205V1.2h.35c.614 0 1.022.117 1.226.38.263.294.38 1.026.38 2.169v14.178c0 1.172-.117 1.905-.38 2.197-.204.264-.612.381-1.226.381h-.525v.997h6.947v-.997h-.525c-.555.03-.964-.088-1.197-.352Zm-8.056 0c-.263-.293-.38-1.025-.38-2.197V6.62l-4.67.205v.996h.35c.613 0 1.022.117 1.226.38.263.294.38 1.026.38 2.17v7.586c0 1.172-.117 1.904-.38 2.197-.204.264-.642.381-1.226.381h-.525v.997h6.947v-.997h-.526c-.584 0-.992-.117-1.196-.38Zm-45.126-4.247L30.023.234h-6.158v1.025h.583c.468 0 .847.03 1.08.117.438.147.7.47.818.967.058.234.087.703.087 1.465v12.333c0 1.143-.029 1.963-.117 2.46-.116.645-.32 1.114-.67 1.407-.38.322-.818.498-1.285.498h-.526v1.025h6.568v-1.025h-.409c-1.138 0-1.868-.557-2.189-1.67-.117-.41-.146-1.318-.146-2.695V2.167l5.604 19.364h.993L39.86 2.168v15.204c0 .733-.03 1.319-.087 1.758-.03.38-.176.674-.38.88-.321.321-.905.468-1.693.468h-.263v1.025h7.969v-1.025h-.438c-1.11 0-1.751-.322-1.985-.996-.116-.351-.175-1.084-.175-2.168V4.394c0-.732.03-1.318.087-1.787.03-.38.176-.674.38-.879.321-.322.876-.498 1.693-.498h.438V.205h-6.217l-4.612 15.702Zm-16.725-5.889h-4.29v4.306h4.29v-4.306Z" fill="#000"></path><path d="M14.378 21.531v-1.2c-.584 0-.992 0-1.226-.03-.817-.088-1.371-.293-1.722-.645-.408-.41-.583-1.289-.583-2.666V1.26c1.78.058 3.152.644 4.144 1.757.934 1.084 1.518 2.724 1.752 4.921l1.138-.205-.204-7.529H.66l-.205 7.53 1.138.204c.205-2.226.788-3.867 1.752-4.921.992-1.113 2.364-1.7 4.144-1.758v15.732c0 1.376-.204 2.255-.583 2.665-.35.352-.905.557-1.722.645-.234.03-.643.03-1.226.03v1.2h10.42Z" fill="#000"></path><path d="M4.746 10.018H.456v4.306h4.29v-4.306Zm99.416-2.783c0 .586-.409 1.026-.992 1.026-.584 0-.993-.44-.993-1.026 0-.586.438-1.025.993-1.025.554 0 .992.44.992 1.025Zm-.204 0c0-.468-.35-.85-.817-.85-.468 0-.818.352-.818.85s.35.85.818.85c.496 0 .817-.38.817-.85Zm-.613.117.233.352h-.204l-.204-.351h-.176v.351h-.174v-.967h.408c.204 0 .35.117.35.293s-.087.264-.233.322Zm-.351-.176h.234c.117 0 .175-.028.175-.146 0-.087-.058-.146-.175-.146h-.234v.293Z" fill="#000"></path></svg></defs><use href="#svg-2060823094_4119"></use></svg>