<svg xmlns="http://www.w3.org/2000/svg" xmlns:xlink="http://www.w3.org/1999/xlink" style="width: 100%; height: 100%" viewBox="0 0 120 19" preserveAspectRatio="none" width="120" height="19"><defs><svg width="120" height="19" fill="none" xmlns="http://www.w3.org/2000/svg" id="svg-234516221_1855"><path d="M27.324 3.489h-5.302c-.157 0-.236-.119-.236-.237V.611c0-.158.118-.237.236-.237h14.605c.158 0 .237.119.237.237v2.641c0 .158-.118.237-.237.237h-5.341c-.158 0-.237.118-.237.236v14.566c0 .157-.118.236-.236.236h-2.976c-.158 0-.237-.118-.237-.236V3.725c-.04-.118-.118-.236-.276-.236ZM48.73 8.416 53.617.473a.217.217 0 0 1 .197-.118h3.45v.157l-6.978 11.314c-.04.04-.04.079-.04.157v6.308a.27.27 0 0 1-.275.275h-2.937a.27.27 0 0 1-.276-.275v-6.308c0-.039 0-.118-.04-.157L40.018.512V.355h3.409c.079 0 .158.04.236.118l4.691 7.904a.2.2 0 0 0 .375.039Zm21.621 4.81h-4.966a.27.27 0 0 0-.276.275v4.849a.27.27 0 0 1-.276.275h-2.937a.27.27 0 0 1-.276-.275V.63a.27.27 0 0 1 .276-.275c2.799 0 5.617-.04 8.416-.04 9.027.04 9.027 12.91.04 12.91Zm-5.203-3.41a.27.27 0 0 0 .276.275h4.967c4.415 0 4.415-6.425 0-6.425h-4.967a.27.27 0 0 0-.276.276v5.873Zm33.644-.237c-.079 4.69-2.976 9.421-9.46 9.421-6.485 0-9.422-4.612-9.422-9.421C79.91 4.809 83.004 0 89.33 0c6.367 0 9.5 4.81 9.461 9.579Zm-15.472.079c.079 2.976 1.715 6.208 6.051 6.208s5.972-3.213 6.011-6.208c.04-3.095-1.714-6.544-6.05-6.544-4.297 0-6.071 3.489-6.012 6.544Zm32.6-9.303h2.936a.27.27 0 0 1 .276.276V18.35a.27.27 0 0 1-.276.275h-1.892L107.74 6.918c-.157-.197-.473-.079-.473.158V18.35a.27.27 0 0 1-.276.275h-2.936a.27.27 0 0 1-.276-.275V.63a.27.27 0 0 1 .276-.275h2.444c.078 0 .157.04.197.079l8.494 10.623c.158.197.473.079.473-.158V.591c.02-.118.138-.236.257-.236ZM.894 18.172 8.876.492c.04-.078.158-.157.237-.157h3.449c.118 0 .197.079.236.158l7.983 17.68c.079.196-.04.393-.237.393h-3.173a.266.266 0 0 1-.236-.157L11.083 4.73c-.08-.197-.394-.236-.513 0l-4.336 9.737c-.04.079.04.157.118.118l4.415-1.892a.29.29 0 0 1 .355.158l1.045 2.365c.079.157 0 .315-.158.354l-6.977 2.977H1.13c-.197.02-.315-.217-.236-.375Z" fill="#000"></path></svg></defs><use href="#svg-234516221_1855"></use></svg>