<svg xmlns="http://www.w3.org/2000/svg" xmlns:xlink="http://www.w3.org/1999/xlink" style="width: 100%; height: 100%" viewBox="0 0 80 23" preserveAspectRatio="none" width="80" height="23"><defs><svg width="80" height="23" fill="none" xmlns="http://www.w3.org/2000/svg" id="svg-184579098_1540"><path d="M47.834 22.978c3.763 0 6.523-1.19 7.833-2.068V9.616h-8.628l-.005 4.4h3.776v3.891c-.31.202-1.323.491-2.667.491-3.724 0-5.858-2.713-5.858-6.893 0-3.873 1.592-6.68 6.28-6.68 1.904 0 3.51.344 4.906.93l1.874-4.322C53.518.535 51.455 0 48.244 0 41.755 0 36.79 4.629 36.79 11.645c0 6.233 3.653 11.333 11.044 11.333Z" fill="#000"></path><path fill-rule="evenodd" clip-rule="evenodd" d="M68.43 23c6.553 0 11.005-4.798 11.005-11.485C79.435 3.707 73.945 0 68.637 0 63.1 0 57.632 3.913 57.632 11.515c0 7.08 4.602 11.485 10.799 11.485Zm.089-18.378c4.01 0 5.556 3.699 5.556 6.893 0 3.233-1.545 6.898-5.556 6.898-3.194 0-5.554-2.664-5.554-6.898 0-3.768 1.914-6.893 5.554-6.893ZM30.418 22.617c-.73-2.68-1.962-4.718-2.975-6.02-.854-1.1-1.519-1.335-1.519-1.335-.692.02-1.168.02-1.8-.012v7.367h-5.162V.59A38.274 38.274 0 0 1 21.97.213 38.134 38.134 0 0 1 25.52.05c1.741 0 3.22.194 4.43.576 1.219.383 2.207.91 2.978 1.58a5.841 5.841 0 0 1 1.7 2.409c.363.89.544 1.84.544 2.853 0 1.332-.324 2.63-1.035 3.734-.633.983-1.69 1.989-2.79 2.683v.098c2.454 1.121 3.84 4.732 5.187 8.633h-6.116Zm-.422-15.023c0-.93-.338-1.678-1.003-2.183-.667-.528-1.587-.785-2.698-.8a13.299 13.299 0 0 0-2.171.132v6.347c.343.039 1.06.07 1.638.07 1.237 0 2.382-.34 3.11-.904.732-.587 1.124-1.529 1.124-2.662Z" fill="#000"></path><path d="M.828.362v16.98c0 3.486 1.362 5.274 5.235 5.274h10.34l-.008-4.707H8.013c-1.145 0-2.024-.63-2.024-2.127v-2.38h8.466l-.002-4.496H5.989v-3.81h10L15.985.362H.828Z" fill="#000"></path></svg></defs><use href="#svg-184579098_1540"></use></svg>