<svg xmlns="http://www.w3.org/2000/svg" xmlns:xlink="http://www.w3.org/1999/xlink" style="width: 100%; height: 100%" viewBox="0 0 103 25" preserveAspectRatio="none" width="103" height="25"><defs><svg width="103" height="25" fill="none" xmlns="http://www.w3.org/2000/svg" id="svg704183423_9590"><path fill-rule="evenodd" clip-rule="evenodd" d="M14.404 21.38c-1.829.732-2.84 1.96-2.84 1.96l.348.173c1.148-1.25 2.1-1.848 3.014-2.055.913.208 1.86.805 3 2.055l.349-.173s-1.004-1.227-2.827-1.96c.97-.071 1.935.248 3.094.639 2.459.83 4.443.069 4.443.069s.4-.294.174-.277c-2.042.138-1.78-.744-5.58-.952a7.377 7.377 0 0 0-2.653.334 7.356 7.356 0 0 0-2.649-.334c-3.816.207-3.555 1.09-5.597.952-.226-.017.174.277.174.277s1.99.762 4.449-.07c1.163-.39 2.13-.71 3.1-.638Zm1.284-4.543c.284 0 .25-.162.25-.468v-1.466c0-.305-.03-.398.144-.398.61 0 .772-.052.772-.594V8.458c0-1.483-1.056-1.241-1.352-1.783-.423-.733.79-.733.348-2.326-.11-.358-.394-.583-.945-.583-.545 0-.83.225-.946.583-.44 1.593.772 1.593.348 2.326-.296.542-1.351.294-1.351 1.783v5.453c0 .537.162.594.771.594.174 0 .145.098.145.398v1.466c0 .3-.034.468.25.468h1.566ZM10.89 5c-.54.571-1.392 1.904-.835 3.012 1.13.433 1.044-3.566 2.453-3.497.696.64-.209 2.528-.487 3.359-.348 1.021-.627 3.168-1.288 4.207-.557.865-.139 3.583-.313 4.518-.47.467-1.74.138-2.28.052 0-1.073-.139-1.922-.313-3.636-.017-.346-.383-5.643-.087-6.284.61-1.333 3.933-3.878 4.385-4.362.4-.433 1.804-1.87 2.35-1.87.382.26.156.866.07 1.108C14.005 2.94 11.667 4.256 10.89 5Zm8.103 0c.522.571 1.375 1.904.835 3.012-1.148.433-1.061-3.566-2.47-3.497-.68.64.226 2.528.504 3.359.348 1.021.626 3.168 1.288 4.207.54.865.139 3.583.296 4.518.487.467 1.74.138 2.297.052 0-1.073.121-1.922.295-3.636.035-.346.4-5.643.105-6.284-.61-1.333-3.933-3.878-4.385-4.362C17.34 1.937 15.955.5 15.409.5c-.4.26-.156.866-.07 1.108.546 1.333 2.872 2.649 3.655 3.393ZM6.054 3.206c-.296.277-.958.468-1.41 1.074-.174-.33.278-1.126.818-1.593.4-.329 1.183-.866 1.41-.917.179.398-.447 1.004-.819 1.436Zm-.923 2.17c-.505.468-1.044.658-1.746 1.512a5.184 5.184 0 0 1-.087-2.539c.244-.796.644-1.68 1.328-1.962-.139.456-.365 1.08-.417 1.927-.296 1.166-.47 1.2-.4 1.356.07 0 .452-.605.922-1.073.557-.56 1.253-.68 1.705-1.01-.07.225-.47.935-1.305 1.79Zm-2.46 4.801c-.678-1.211-.748-2.1-.8-3.122.035-.71.383-2.36.905-2.602-.157 1.489.244 1.633.087 2.862 0 .07-.174 1.35-.174 1.42.209-.035.017-1.178 2.407-2.828-.522.9-.278 1.177-1.218 2.378-1.102 1.079-1.259 2.135-1.206 1.892Zm.964 1.143c-.505.727-.418 1.09-.54 1.443C1.89 12.07.531 9.312 1.036 7.944c.313 1.039.748 1.264 1.061 2.13.54 1.304.453 1.702.8 1.996-.069-.675.158-1.471.384-2.066.33-.502.591-1.16.835-1.39.267.957.075 1.736-.481 2.706Zm1.078 2.36c0 1.056-.191 1.524-.278 2.308-2.077-.675-3.155-3.035-3.155-4.195.626 1.425 1.548 1.402 2.755 3.416.104-.761-.209-.19-.244-1.627.035-1.512.348-1.564.4-2.499.383.416.522 2.078.522 2.597Zm1.723 3c.157.78.226 1.703.348 2.378-1.183-.433-1.485-.104-2.894-.986-.644-.347-1.798-1.807-1.723-2.845 1.392 1.546 1.642 1.367 2.32 1.944.627.502 1.131 1.253 1.584 1.149.035-.416-1.027-1.322-.888-3.919.279.289 1.044 1.466 1.253 2.28Zm2.355 1.945c.366.52.279.745 1.218 1.824-.226.104-1.566.45-2.46.485-.59 0-2.685-.554-3.38-1.98 1.2.641 1.217.485 2.824.831 1.148.26 1.972.624 2.285.589-.07-.156-.957-.52-1.566-1.287-.609-.814-.47-1.731-1.009-2.412.365-.098 1.792 1.57 2.088 1.95ZM23.733 3.206c.278.277.957.468 1.398 1.074.191-.33-.279-1.126-.818-1.593-.383-.329-1.166-.866-1.415-.917-.174.398.452 1.004.835 1.436Zm.922 2.17c.487.468 1.027.658 1.729 1.512a5.092 5.092 0 0 0 .087-2.533c-.226-.797-.644-1.68-1.329-1.962.157.45.366 1.073.418 1.927.296 1.16.47 1.195.4 1.35-.07 0-.452-.605-.922-1.073-.54-.554-1.241-.675-1.711-1.004.075.22.493.93 1.328 1.783Zm2.442 4.801c.696-1.211.748-2.1.8-3.122-.034-.71-.382-2.36-.887-2.602.14 1.489-.26 1.633-.087 2.862 0 .07.157 1.35.157 1.42-.191-.035-.017-1.178-2.39-2.828.505.9.261 1.177 1.2 2.378 1.12 1.079 1.26 2.135 1.207 1.892Zm-.94 1.143c.488.727.4 1.09.523 1.443 1.2-.693 2.58-3.451 2.059-4.819-.296 1.039-.748 1.264-1.044 2.13-.557 1.304-.47 1.702-.8 1.996.069-.675-.175-1.471-.401-2.066-.313-.502-.592-1.16-.835-1.39-.255.957-.081 1.736.499 2.706Zm-1.102 2.36c0 1.056.21 1.524.296 2.308 2.06-.675 3.156-3.035 3.156-4.195-.644 1.425-1.555 1.402-2.773 3.416-.104-.761.209-.19.244-1.627-.035-1.512-.348-1.564-.4-2.499-.383.416-.523 2.078-.523 2.597Zm-1.722 3c-.157.78-.209 1.703-.33 2.378 1.165-.433 1.46-.104 2.876-.986.644-.347 1.816-1.807 1.74-2.845-1.392 1.546-1.653 1.367-2.32 1.944-.626.502-1.148 1.253-1.607 1.149-.034-.416 1.033-1.322.905-3.919-.29.289-1.055 1.466-1.264 2.28Zm-2.355 1.945c-.348.52-.261.745-1.218 1.824.243.104 1.572.45 2.476.485.575 0 2.669-.554 3.365-1.98-1.2.641-1.218.485-2.825.831-1.148.26-1.955.624-2.285.589.07-.156.974-.52 1.572-1.287.609-.814.47-1.731 1.026-2.412-.388-.098-1.815 1.57-2.111 1.95ZM35.305 19.7h-1.328v-.814h3.625v.814h-1.328v3.59h-.97V19.7Zm2.599-.814h.881v1.656h.018c.226-.357.609-.53.933-.53.934 0 1.172.525 1.172 1.315v1.962h-.882v-1.8c0-.525-.156-.785-.562-.785-.476 0-.685.265-.685.912v1.673h-.881v-4.403h.005Zm4.263 3.024c.023.554.296.808.789.808.353 0 .638-.214.696-.416h.777c-.25.75-.777 1.074-1.502 1.074-1.01 0-1.636-.693-1.636-1.68 0-.957.661-1.684 1.636-1.684 1.09 0 1.618.911 1.554 1.892h-2.314v.006Zm1.432-.554c-.08-.444-.272-.675-.701-.675-.557 0-.72.433-.731.675h1.432Zm6.526.271c0 1.189-.708 1.772-1.891 1.772-1.19 0-1.885-.572-1.885-1.772v-2.735h.974v2.735c0 .48.122.958.911.958.696 0 .916-.3.916-.958v-2.735h.975v2.735Zm.65-2.74h.968l1.845 2.954h.011v-2.955h.917v4.403h-.975l-1.844-2.943h-.012v2.943h-.91v-4.403Zm5.719 4.402h.974v-1.72h.975c.487 0 .667.202.736.664.053.352.035.78.157 1.056h.974c-.174-.248-.168-.762-.185-1.044-.03-.445-.168-.906-.644-1.027v-.012c.493-.196.702-.589.702-1.102 0-.664-.499-1.218-1.294-1.218h-2.395v4.403Zm.974-3.647h1.068c.435 0 .667.185.667.612 0 .444-.238.629-.667.629h-1.068v-1.24Zm6.334 2.268c.064-.981-.464-1.893-1.554-1.893-.975 0-1.636.727-1.636 1.685 0 .987.627 1.68 1.636 1.68.725 0 1.253-.324 1.502-1.074h-.777c-.058.196-.342.416-.696.416-.487 0-.76-.254-.789-.808h2.314v-.006Zm-2.308-.554c.011-.248.174-.675.73-.675.43 0 .621.236.703.675h-1.433Zm2.912-.67h-.528v-.582h.528v-.248c0-.56.353-.97 1.073-.97.156 0 .319.017.464.023v.652a2.915 2.915 0 0 0-.325-.017c-.232 0-.337.098-.337.364v.19h.61v.583h-.61v2.602H64.4v-2.596h.006Zm4.762 2.603h-.836v-.444h-.017c-.22.358-.609.53-.98.53-.934 0-1.172-.524-1.172-1.315v-1.962h.882v1.8c0 .526.156.785.562.785.476 0 .68-.265.68-.912v-1.667h.88v3.185Zm3.613-3.185h-.835v.427h-.011c-.21-.37-.534-.514-.952-.514-.899 0-1.374.75-1.374 1.581 0 .877.406 1.605 1.369 1.605.382 0 .765-.162.957-.497h.011v.422c.006.456-.215.79-.707.79-.308 0-.575-.11-.656-.438h-.876c.04.727.783 1.021 1.416 1.021 1.473 0 1.658-.889 1.658-1.414v-2.983Zm-1.589 2.435c-.54 0-.713-.502-.713-.958 0-.473.214-.906.713-.906.569 0 .748.462.748.981.006.456-.243.883-.748.883Zm5.22-.629c.064-.981-.464-1.893-1.554-1.893-.975 0-1.636.727-1.636 1.685 0 .987.627 1.68 1.636 1.68.725 0 1.253-.324 1.502-1.074h-.777c-.058.196-.342.416-.696.416-.487 0-.76-.254-.789-.808h2.314v-.006Zm-2.308-.554c.011-.248.174-.675.73-.675.43 0 .621.236.703.675h-1.433Zm5.754.554c.064-.981-.464-1.893-1.555-1.893-.974 0-1.635.727-1.635 1.685 0 .987.626 1.68 1.635 1.68.725 0 1.253-.324 1.503-1.074h-.778c-.058.196-.342.416-.696.416-.493 0-.76-.254-.788-.808h2.314v-.006Zm-2.309-.554c.012-.248.174-.675.731-.675.43 0 .62.236.702.675H77.55Zm3.707 1.933h.986l.348-.98h1.653l.337.98h1.009l-1.653-4.403h-.998l-1.682 4.403Zm2.158-3.318h.011l.557 1.616h-1.148l.58-1.616Zm5.406.133h-.836v.427h-.011c-.21-.37-.534-.514-.952-.514-.899 0-1.374.75-1.374 1.581 0 .877.412 1.605 1.369 1.605.382 0 .771-.162.962-.497h.012v.422c.006.456-.215.79-.707.79-.308 0-.575-.11-.656-.438h-.876c.047.727.783 1.021 1.415 1.021 1.474 0 1.66-.889 1.66-1.414v-2.983h-.006Zm-1.59 2.435c-.54 0-.713-.502-.713-.958 0-.473.214-.906.713-.906.569 0 .748.462.748.981.006.456-.243.883-.748.883Zm5.22-.629c.064-.981-.463-1.893-1.554-1.893-.974 0-1.636.727-1.636 1.685 0 .987.627 1.68 1.636 1.68.725 0 1.253-.324 1.497-1.074h-.772c-.058.196-.342.416-.696.416-.487 0-.76-.254-.789-.808h2.315v-.006Zm-2.308-.554c.012-.248.174-.675.73-.675.43 0 .622.236.703.675h-1.433Zm2.692-1.252h.835v.444h.017c.22-.358.61-.53.98-.53.934 0 1.172.524 1.172 1.315v1.962h-.882v-1.8c0-.526-.156-.785-.562-.785-.476 0-.685.265-.685.912v1.673h-.881v-3.191h.005Zm5.719 1.12c-.052-.358-.284-.549-.65-.549-.563 0-.748.566-.748 1.033 0 .456.18 1.004.73 1.004.407 0 .644-.26.703-.646h.846c-.11.842-.701 1.31-1.543 1.31-.968 0-1.618-.681-1.618-1.633 0-.993.598-1.726 1.636-1.726.76 0 1.45.393 1.508 1.206h-.864Zm2.848 2.47c-.192.513-.499.72-1.102.72-.18 0-.36-.011-.54-.028v-.722c.168.012.342.035.516.03.302-.03.401-.347.302-.601l-1.125-2.99h.939l.725 2.182h.012l.702-2.181h.911l-1.34 3.59Zm-55.452-11.94c0 3.612-1.967 5.35-5.963 5.35-4.002 0-5.98-1.738-5.98-5.35V3.755h4.037v7.103c0 1.333 0 2.995 1.966 2.995 1.908 0 1.908-1.662 1.908-2.995V3.755h4.038v7.998h-.006Zm2.418-7.998h4.13l3.817 6.97h.035v-6.97h3.817V16.79h-3.927l-4.02-7.121h-.035v7.12h-3.817V3.756Zm14.275 0h4.037v4.53h3.782v-4.53h4.037V16.79h-4.037v-5.17H66.68v5.17h-4.037V3.756ZM84.83 8.608c-.075-.473-.44-1.916-2.111-1.916-1.891 0-2.495 1.823-2.495 3.578 0 1.754.604 3.577 2.495 3.577 1.357 0 1.89-.946 2.128-2.17h3.962c0 2.632-2.146 5.425-5.98 5.425-4.24 0-6.642-2.978-6.642-6.827 0-4.108 2.605-6.826 6.642-6.826 3.596.017 5.58 1.898 5.928 5.164H84.83v-.005Zm5.667 8.183h4.037v-4.548h2.146c1.595 0 1.706 1.299 1.816 2.54.052.674.127 1.35.33 2.008h4.037c-.371-.6-.382-2.153-.44-2.793-.145-1.628-.824-2.834-1.926-3.25 1.34-.496 1.966-1.915 1.966-3.266 0-2.464-1.984-3.722-4.275-3.722h-7.691v13.03Zm4.037-9.932h1.89c1.544 0 2.002.473 2.002 1.299 0 1.165-1.027 1.298-1.78 1.298h-2.112V6.859Z" fill="#000"></path></svg></defs><use href="#svg704183423_9590"></use></svg>